# xmcd
#
# Track frame offsets:
#	150
#	16185
#	34440
#
# Disc length: 778 seconds
#
# Revision: 0
# Processed by: cddbd v1.4PL0 Copyright (c) Steve Scherf et al.
# Submitted via: EasyCDDAExtractor 4.5.2.1
#
DISCID=1c030803
DTITLE=B.B. King - Ain't Nobody Home
DYEAR=1900
DGENRE=Blues
TTITLE0=Ain't Nobody Home
TTITLE1=Lay Another Log On The Fire
TTITLE2=Standing On The Edge Of Love
EXTD=
EXTT0=
EXTT1=
EXTT2=
PLAYORDER=
